<?xml version="1.0" encoding="UTF-8" standalone="no"?>
<!-- Created with Inkscape (http://www.inkscape.org/) -->

<svg
   width="297mm"
   height="210mm"
   viewBox="0 0 1122.5197 793.7008"
   version="1.1"
   id="svg1"
   xml:space="preserve"
   inkscape:version="1.4.2 (2aeb623e1d, 2025-05-12)"
   sodipodi:docname="persian-gnome-community.svg"
   inkscape:export-filename="../f4620003/persian-gnome-community.png"
   inkscape:export-xdpi="96"
   inkscape:export-ydpi="96"
   xmlns:inkscape="http://www.inkscape.org/namespaces/inkscape"
   xmlns:sodipodi="http://sodipodi.sourceforge.net/DTD/sodipodi-0.dtd"
   xmlns:xlink="http://www.w3.org/1999/xlink"
   xmlns="http://www.w3.org/2000/svg"
   xmlns:svg="http://www.w3.org/2000/svg"><sodipodi:namedview
     id="namedview1"
     pagecolor="#ffffff"
     bordercolor="#000000"
     borderopacity="0.25"
     inkscape:showpageshadow="2"
     inkscape:pageopacity="0.0"
     inkscape:pagecheckerboard="0"
     inkscape:deskcolor="#d1d1d1"
     inkscape:document-units="mm"
     inkscape:zoom="0.5"
     inkscape:cx="1429"
     inkscape:cy="439"
     inkscape:window-width="2474"
     inkscape:window-height="1011"
     inkscape:window-x="0"
     inkscape:window-y="0"
     inkscape:window-maximized="1"
     inkscape:current-layer="layer1-5"
     showguides="false"><inkscape:page
       x="0"
       y="0"
       width="1122.5198"
       height="793.70081"
       id="page1"
       margin="0"
       bleed="0" /><inkscape:page
       x="1177.4319"
       y="301.11627"
       width="1485.8365"
       height="490.27298"
       id="page2"
       margin="207.87401 424.2641 364.8671 0"
       bleed="0"
       inkscape:export-filename="../48a37cf7/persian-gnome-community-2.png"
       inkscape:export-xdpi="300"
       inkscape:export-ydpi="300" /></sodipodi:namedview><defs
     id="defs1"><linearGradient
       id="linearGradient1"
       inkscape:collect="always"><stop
         style="stop-color:#006595;stop-opacity:1;"
         offset="0"
         id="stop2" /><stop
         style="stop-color:#00a795;stop-opacity:1;"
         offset="1"
         id="stop1" /></linearGradient><linearGradient
       inkscape:collect="always"
       xlink:href="#linearGradient1"
       id="linearGradient2"
       x1="38.74733"
       y1="225.83601"
       x2="225.83601"
       y2="38.74733"
       gradientUnits="userSpaceOnUse"
       gradientTransform="matrix(1.1268153,0,0,0.79599277,-17.141316,48.506279)" /><linearGradient
       inkscape:collect="always"
       xlink:href="#linearGradient1"
       id="linearGradient3"
       gradientUnits="userSpaceOnUse"
       gradientTransform="matrix(0.49037282,0,0,1.4858384,128.08912,-688.2528)"
       x1="38.74733"
       y1="225.83601"
       x2="225.83601"
       y2="38.74733" /></defs><g
     inkscape:label="Layer 1"
     inkscape:groupmode="layer"
     id="layer1"><g
       inkscape:label="Layer 1"
       id="layer1-5"
       transform="matrix(3.7795276,0,0,3.7795276,62.000008,-183)"><rect
         style="fill:url(#linearGradient2);fill-opacity:1;stroke-width:0;paint-order:markers fill stroke"
         id="rect1"
         width="298.13657"
         height="210.60643"
         x="-17.141321"
         y="48.506275" /><rect
         style="fill:url(#linearGradient3);fill-opacity:1;stroke-width:0;paint-order:markers fill stroke"
         id="rect1-7"
         width="129.74449"
         height="393.12811"
         x="128.0891"
         y="-688.25275"
         transform="rotate(90)" /><g
         id="g5"
         transform="translate(0,-2.5611512)"><path
           style="opacity:0.907924;fill:#ffffff;fill-opacity:1;stroke-width:0.522134"
           d="m 121.15483,210.12179 c -0.76543,-0.0999 -2.35425,-0.59921 -3.10832,-0.97713 -2.20814,-1.10669 -4.03242,-3.09679 -4.77469,-5.20868 -0.38618,-1.09874 -0.68214,-2.59492 -0.68214,-3.44842 0,-1.78431 0.0201,-1.826 5.1997,-10.787 2.67982,-4.63625 4.92188,-8.41659 4.98235,-8.40075 0.0605,0.0165 0.79378,0.30742 1.62958,0.64796 1.74565,0.71125 3.72679,1.25098 5.35947,1.4601 0.62341,0.0798 1.33551,0.17848 1.58245,0.21921 l 0.44898,0.074 v 9.52197 9.52195 l -0.39394,1.07942 c -1.076,2.94833 -3.43886,5.11276 -6.51072,5.96403 -1.00958,0.27976 -2.86922,0.44581 -3.73272,0.33331 z m 21.0643,-0.0368 c -3.71764,-0.59181 -6.59389,-2.8937 -7.82261,-6.26047 l -0.39395,-1.07947 v -9.52821 c 0,-5.24053 0.0156,-9.5285 0.0345,-9.52884 0.019,-3.6e-4 0.84401,-0.11984 1.83336,-0.26531 2.19487,-0.32293 3.95416,-0.80542 5.63426,-1.54521 0.69863,-0.30762 1.35162,-0.56993 1.45109,-0.58289 0.10433,-0.0133 2.23972,3.53974 5.05142,8.40598 5.17735,8.96047 5.19787,9.00307 5.19787,10.78701 0,1.48242 -0.63255,3.71103 -1.40165,4.93835 -1.37243,2.19014 -3.25252,3.62222 -5.71295,4.35161 -1.11061,0.32924 -2.86113,0.46825 -3.87139,0.30743 z m -39.57609,-10.45736 c -0.67315,-0.12838 -2.12618,-0.6273 -2.75102,-0.94434 -5.327991,-2.70344 -6.941361,-9.65767 -3.356,-14.46557 0.82357,-1.10438 1.13174,-1.33737 3.75852,-2.84155 1.32966,-0.76139 4.95906,-2.85274 8.06533,-4.64743 3.10626,-1.79466 5.68617,-3.26108 5.73313,-3.25866 0.0469,0.004 0.36376,0.42202 0.704,0.9325 0.79835,1.19776 3.81029,4.20931 5.00716,5.00652 0.53072,0.35348 0.90226,0.69358 0.86692,0.79351 -0.22846,0.64595 -9.72975,16.85638 -10.0715,17.18329 -0.64886,0.62067 -2.11342,1.45338 -3.26446,1.85605 -0.84159,0.29442 -1.33594,0.36909 -2.68894,0.40619 -0.91177,0.025 -1.81319,0.0165 -2.00314,-0.0205 z m 56.98593,-0.0495 c -1.57136,-0.34929 -3.50824,-1.30697 -4.43377,-2.19231 -0.34426,-0.32932 -9.85551,-16.55965 -10.06969,-17.18329 -0.0339,-0.0987 0.37357,-0.47632 0.93365,-0.86563 1.28204,-0.89114 3.82638,-3.43213 4.79825,-4.79198 0.41745,-0.58407 0.79742,-1.06586 0.84438,-1.07063 0.0469,-0.005 2.62686,1.45971 5.73313,3.25437 3.10626,1.7947 6.73567,3.88579 8.06534,4.6469 1.32966,0.76112 2.65127,1.60606 2.93688,1.87768 0.8275,0.78689 1.77484,2.31882 2.22734,3.60175 0.57426,1.62809 0.67079,3.95302 0.23176,5.58166 -0.89623,3.32473 -3.18075,5.73515 -6.50414,6.86261 -0.99958,0.33909 -3.764,0.50095 -4.76313,0.27887 z M 92.903637,181.39227 c -4.385825,-0.56975 -7.271944,-2.98661 -8.582223,-7.18681 -0.18981,-0.60845 -0.250763,-1.23674 -0.245995,-2.53571 0.0055,-1.47014 0.05864,-1.88429 0.358126,-2.78597 0.938465,-2.82543 2.989798,-5.05926 5.631712,-6.13277 l 0.829742,-0.33716 h 9.795851 9.79586 l 0.0786,0.44898 c 0.0432,0.24694 0.14566,0.95657 0.22757,1.57695 0.22144,1.67706 0.76056,3.65637 1.46131,5.36498 0.34278,0.83579 0.63619,1.57549 0.65203,1.64378 0.026,0.11182 -3.72115,2.31664 -13.16431,7.74593 -3.39759,1.95342 -3.629,2.04401 -5.594983,2.19005 -0.455891,0.0339 -1.015387,0.0375 -1.243328,0.008 z m 77.857293,-0.0733 c -0.56376,-0.0732 -1.2213,-0.21493 -1.46118,-0.31515 -0.52789,-0.22057 -16.08989,-9.17169 -16.34026,-9.39876 -0.14157,-0.12838 -0.0827,-0.36612 0.29724,-1.19983 0.9288,-2.03813 1.55411,-4.41224 1.8501,-7.02435 l 0.10184,-0.89796 9.84333,-0.0353 9.84335,-0.0355 0.83202,0.33808 c 2.64427,1.07446 4.69517,3.3073 5.63397,6.13369 0.29949,0.90168 0.35273,1.31583 0.35812,2.78598 0.007,1.82691 -0.13506,2.52304 -0.83647,4.10917 -1.68901,3.81917 -5.84621,6.09451 -10.12198,5.54004 z m -40.14298,-0.20137 c -2.52359,-0.37098 -4.83836,-1.10551 -6.99003,-2.21812 -5.20516,-2.69156 -8.88717,-7.58657 -10.21824,-13.58452 -0.46616,-2.10059 -0.47034,-5.75858 -0.009,-7.9435 0.83571,-3.95858 2.61481,-7.23988 5.46896,-10.0867 2.92203,-2.91455 6.05305,-4.6117 10.0934,-5.47107 2.16518,-0.46052 5.83151,-0.46009 7.93034,0.001 2.90244,0.63755 5.72448,1.89993 7.90398,3.53564 1.43142,1.07432 3.5343,3.24757 4.50033,4.65098 1.42142,2.06497 2.48942,4.55469 3.10316,7.23415 0.27501,1.20059 0.31481,1.73756 0.30714,4.14235 -0.008,2.47794 -0.0462,2.92254 -0.37126,4.30991 -0.92632,3.95384 -2.76577,7.16069 -5.75077,10.02577 -2.72342,2.61401 -5.725,4.20357 -9.61314,5.09091 -0.92194,0.21038 -1.85038,0.29542 -3.59184,0.32896 -1.29168,0.0248 -2.53501,0.0179 -2.76295,-0.0148 z m 5.61141,-6.45948 c 4.93535,-1.25703 8.70272,-5.00684 10.02141,-9.97469 0.31354,-1.18121 0.36408,-1.64968 0.36408,-3.37476 0,-1.72509 -0.0506,-2.19353 -0.36408,-3.37475 -1.31908,-4.96931 -5.02685,-8.66485 -10.02141,-9.98837 -1.83239,-0.48555 -4.60944,-0.51367 -6.41363,-0.065 -5.21014,1.29584 -9.05534,5.14143 -10.34535,10.34642 -0.42488,1.71431 -0.42488,4.449 0,6.16332 0.42067,1.69733 1.04562,3.12608 1.97537,4.51607 2.20238,3.29259 5.60151,5.44357 9.59835,6.07383 1.31587,0.20752 3.68324,0.0605 5.18526,-0.32211 z m -4.92066,-1.88928 c -4.67103,-0.72425 -8.388,-4.06174 -9.61751,-8.6356 -0.41462,-1.54239 -0.41462,-4.10673 0,-5.64914 1.106,-4.11436 4.28855,-7.30054 8.37418,-8.3837 1.54597,-0.40988 4.11237,-0.41067 5.66405,-0.001 1.43501,0.37815 3.36566,1.35231 4.46379,2.25231 1.82963,1.49953 3.30358,3.80651 3.91376,6.12571 0.41089,1.56173 0.41243,4.12723 0.003,5.66405 -1.31835,4.95327 -5.61354,8.43973 -10.71034,8.69375 -0.69434,0.0346 -1.63543,0.005 -2.09132,-0.0656 z M 90.032952,159.86015 c -2.633722,-1.09397 -4.666619,-3.31827 -5.599407,-6.12659 -0.299496,-0.90169 -0.352732,-1.31585 -0.358126,-2.78598 -0.0049,-1.29898 0.05619,-1.92727 0.245995,-2.53572 1.102306,-3.53353 3.414257,-5.87581 6.78483,-6.87387 1.379434,-0.40847 3.969883,-0.39714 5.251086,0.023 0.63179,0.20715 16.58184,9.46847 16.54893,9.60904 -0.0159,0.0677 -0.30825,0.80678 -0.64981,1.64258 -0.71415,1.74752 -1.23849,3.66365 -1.45896,5.33159 -0.0844,0.63874 -0.18889,1.36339 -0.23214,1.61032 l -0.0786,0.44898 -9.82765,-0.007 -9.827641,-0.007 z m 65.200458,0.23971 c -0.0331,-0.0569 -0.10446,-0.53877 -0.15839,-1.07065 -0.23565,-2.32117 -0.89367,-4.78821 -1.81827,-6.81713 -0.37993,-0.83369 -0.43882,-1.07141 -0.29725,-1.1998 0.24925,-0.22609 15.8127,-9.17859 16.32921,-9.39299 1.12226,-0.46587 3.95696,-0.50855 5.39986,-0.0812 3.37057,0.99807 5.68252,3.34034 6.78483,6.87388 0.18982,0.60845 0.25075,1.23674 0.24599,2.53571 -0.005,1.47014 -0.0586,1.8843 -0.35813,2.78599 -0.93846,2.8254 -2.98979,5.05925 -5.6317,6.13276 l -0.82977,0.33714 h -9.80305 c -5.39171,0 -9.83019,-0.0466 -9.86332,-0.10354 z m -47.13354,-14.34684 c -3.19121,-1.85458 -6.82795,-3.95917 -8.08163,-4.67681 -1.25369,-0.71766 -2.50605,-1.54106 -2.78303,-1.82978 -0.84721,-0.88311 -1.717301,-2.32547 -2.127338,-3.52652 -0.54636,-1.60037 -0.635467,-3.95843 -0.209317,-5.5393 0.904356,-3.35482 3.196955,-5.75394 6.582155,-6.88799 0.82649,-0.27688 1.21555,-0.31847 2.88917,-0.30892 1.73384,0.0105 2.04083,0.0493 2.96524,0.38173 1.16142,0.41754 2.62451,1.25388 3.26446,1.86603 0.34426,0.3293 9.85552,16.55963 10.06971,17.18327 0.0337,0.0982 -0.37117,0.47771 -0.92367,0.86564 -1.43382,1.00679 -3.63727,3.18225 -4.66928,4.60998 -0.49388,0.68327 -0.96013,1.24058 -1.03611,1.23848 -0.076,-0.001 -2.74914,-1.52121 -5.94036,-3.37581 z m 43.15588,2.89038 c -1.07037,-1.73191 -4.3312,-4.95176 -6.00218,-5.92676 -0.23338,-0.13621 0.17083,-0.88902 4.59892,-8.56517 2.67014,-4.62871 5.06076,-8.62294 5.3125,-8.87603 0.63461,-0.63801 2.06808,-1.46906 3.29468,-1.91001 0.92441,-0.33234 1.23139,-0.37185 2.96522,-0.38173 1.67363,-0.0105 2.06269,0.0321 2.88919,0.30892 3.38521,1.13405 5.67779,3.53317 6.58216,6.88799 0.43903,1.62865 0.3425,3.95358 -0.23176,5.58167 -0.45263,1.28332 -1.40028,2.81554 -2.22734,3.60132 -0.45443,0.43175 -16.47321,9.78805 -16.75798,9.78805 -0.06,0 -0.25064,-0.22871 -0.42341,-0.50825 z m -28.63008,-7.33688 c -0.0322,-0.0541 -2.23239,-3.86491 -4.88928,-8.46849 -5.34835,-9.26707 -5.27744,-9.11104 -5.10293,-11.22855 0.35395,-4.29482 2.98075,-7.53186 7.1399,-8.79853 1.42523,-0.43408 3.49796,-0.44028 5.01465,-0.0148 3.18457,0.89288 5.52144,3.01355 6.6112,5.99956 l 0.39489,1.08203 -0.0355,9.56 -0.0354,9.56 -0.89796,0.10066 c -2.56539,0.28754 -4.8722,0.87472 -6.75987,1.72067 -1.17224,0.52534 -1.37609,0.59439 -1.43964,0.48771 z m 19.90941,-0.10762 c -1.55013,-0.83974 -4.34446,-1.667 -6.66751,-1.97388 l -1.79592,-0.23726 -0.0355,-9.55513 -0.0354,-9.55514 0.39488,-1.08202 c 1.08976,-2.986 3.42664,-5.10667 6.6112,-5.99956 1.5167,-0.42523 3.58943,-0.41903 5.01466,0.0148 2.55927,0.77943 4.39874,2.17302 5.78203,4.38047 0.7691,1.22734 1.40165,3.45597 1.40165,4.93837 0,1.78315 -0.0215,1.828 -5.19144,10.78215 -2.67529,4.63356 -4.91734,8.43977 -4.98236,8.4582 -0.065,0.0184 -0.28832,-0.0586 -0.49623,-0.17125 z"
           id="path1"
           sodipodi:nodetypes="csssssssscccssscscsssscssssccssssscsscsssssssssscssssssssssssccccsssscssscssscccsssssscsscsscssssssscccssscssssssscssscsscsccsssssscssscccssssssssssscssssssssccsssscsssssssssssssssscsscccssssscccssssssssssscc" /><text
           xml:space="preserve"
           style="font-size:25.4px;text-align:start;writing-mode:lr-tb;direction:ltr;text-anchor:start;fill:#000000;stroke-width:0.264583"
           x="33.643871"
           y="91.753387"
           id="text1"><tspan
             sodipodi:role="line"
             id="tspan1"
             style="font-style:normal;font-variant:normal;font-weight:800;font-stretch:normal;font-size:25.4px;font-family:Arad-VF;-inkscape-font-specification:'Arad-VF Ultra-Bold';fill:#ffffff;fill-opacity:1;stroke-width:0.264583"
             x="33.643871"
             y="91.753387">جامعه گنوم فارسی</tspan></text><text
           xml:space="preserve"
           style="font-style:normal;font-variant:normal;font-weight:normal;font-stretch:normal;font-size:19.7557px;font-family:Arad;-inkscape-font-specification:Arad;text-align:start;writing-mode:lr-tb;direction:ltr;text-anchor:start;fill:#f2f2f2;fill-opacity:1;stroke-width:0.205788"
           x="8.8162451"
           y="238.15727"
           id="text2"><tspan
             sodipodi:role="line"
             id="tspan2"
             style="font-style:normal;font-variant:normal;font-weight:800;font-stretch:normal;font-family:Arad-VF;-inkscape-font-specification:'Arad-VF Ultra-Bold';stroke-width:0.205788"
             x="8.8162451"
             y="238.15727">Persian GNOME Community</tspan><tspan
             sodipodi:role="line"
             style="font-style:normal;font-variant:normal;font-weight:800;font-stretch:normal;font-family:Arad-VF;-inkscape-font-specification:'Arad-VF Ultra-Bold';stroke-width:0.205788"
             x="8.8162451"
             y="264.69113"
             id="tspan3" /></text></g><g
         id="g4"
         transform="translate(-13.879293)"><path
           style="opacity:0.907924;fill:#ffffff;fill-opacity:1;stroke-width:0.522134"
           d="m 624.91186,242.84052 c -0.76543,-0.0999 -2.35425,-0.59921 -3.10832,-0.97713 -2.20814,-1.10669 -4.03242,-3.09679 -4.77469,-5.20868 -0.38618,-1.09874 -0.68214,-2.59492 -0.68214,-3.44842 0,-1.78431 0.0201,-1.826 5.1997,-10.787 2.67982,-4.63625 4.92188,-8.41659 4.98235,-8.40075 0.0605,0.0165 0.79378,0.30742 1.62958,0.64796 1.74565,0.71125 3.72679,1.25098 5.35947,1.4601 0.62341,0.0798 1.33551,0.17848 1.58245,0.21921 l 0.44898,0.074 v 9.52197 9.52195 l -0.39394,1.07942 c -1.076,2.94833 -3.43886,5.11276 -6.51072,5.96403 -1.00958,0.27976 -2.86922,0.44581 -3.73272,0.33331 z m 21.0643,-0.0368 c -3.71764,-0.59181 -6.59389,-2.8937 -7.82261,-6.26047 l -0.39395,-1.07947 v -9.52821 c 0,-5.24053 0.0156,-9.5285 0.0345,-9.52884 0.019,-3.6e-4 0.84401,-0.11984 1.83336,-0.26531 2.19487,-0.32293 3.95416,-0.80542 5.63426,-1.54521 0.69863,-0.30762 1.35162,-0.56993 1.45109,-0.58289 0.10433,-0.0133 2.23972,3.53974 5.05142,8.40598 5.17735,8.96047 5.19787,9.00307 5.19787,10.78701 0,1.48242 -0.63255,3.71103 -1.40165,4.93835 -1.37243,2.19014 -3.25252,3.62222 -5.71295,4.35161 -1.11061,0.32924 -2.86113,0.46825 -3.87139,0.30743 z m -39.57609,-10.45736 c -0.67315,-0.12838 -2.12618,-0.6273 -2.75102,-0.94434 -5.32799,-2.70344 -6.94136,-9.65767 -3.356,-14.46557 0.82357,-1.10438 1.13174,-1.33737 3.75852,-2.84155 1.32966,-0.76139 4.95906,-2.85274 8.06533,-4.64743 3.10626,-1.79466 5.68617,-3.26108 5.73313,-3.25866 0.0469,0.004 0.36376,0.42202 0.704,0.9325 0.79835,1.19776 3.81029,4.20931 5.00716,5.00652 0.53072,0.35348 0.90226,0.69358 0.86692,0.79351 -0.22846,0.64595 -9.72975,16.85638 -10.0715,17.18329 -0.64886,0.62067 -2.11342,1.45338 -3.26446,1.85605 -0.84159,0.29442 -1.33594,0.36909 -2.68894,0.40619 -0.91177,0.025 -1.81319,0.0165 -2.00314,-0.0205 z m 56.98593,-0.0495 c -1.57136,-0.34929 -3.50824,-1.30697 -4.43377,-2.19231 -0.34426,-0.32932 -9.85551,-16.55965 -10.06969,-17.18329 -0.0339,-0.0987 0.37357,-0.47632 0.93365,-0.86563 1.28204,-0.89114 3.82638,-3.43213 4.79825,-4.79198 0.41745,-0.58407 0.79742,-1.06586 0.84438,-1.07063 0.0469,-0.005 2.62686,1.45971 5.73313,3.25437 3.10626,1.7947 6.73567,3.88579 8.06534,4.6469 1.32966,0.76112 2.65127,1.60606 2.93688,1.87768 0.8275,0.78689 1.77484,2.31882 2.22734,3.60175 0.57426,1.62809 0.67079,3.95302 0.23176,5.58166 -0.89623,3.32473 -3.18075,5.73515 -6.50414,6.86261 -0.99958,0.33909 -3.764,0.50095 -4.76313,0.27887 z M 596.66067,214.111 c -4.38583,-0.56975 -7.27195,-2.98661 -8.58222,-7.18681 -0.18981,-0.60845 -0.25077,-1.23674 -0.246,-2.53571 0.005,-1.47014 0.0586,-1.88429 0.35813,-2.78597 0.93846,-2.82543 2.98979,-5.05926 5.63171,-6.13277 l 0.82974,-0.33716 h 9.79585 9.79586 l 0.0786,0.44898 c 0.0432,0.24694 0.14566,0.95657 0.22757,1.57695 0.22144,1.67706 0.76056,3.65637 1.46131,5.36498 0.34278,0.83579 0.63619,1.57549 0.65203,1.64378 0.026,0.11182 -3.72115,2.31664 -13.16431,7.74593 -3.39759,1.95342 -3.629,2.04401 -5.59498,2.19005 -0.45589,0.0339 -1.01539,0.0375 -1.24333,0.008 z m 77.85729,-0.0733 c -0.56376,-0.0732 -1.2213,-0.21493 -1.46118,-0.31515 -0.52789,-0.22057 -16.08989,-9.17169 -16.34026,-9.39876 -0.14157,-0.12838 -0.0827,-0.36612 0.29724,-1.19983 0.9288,-2.03813 1.55411,-4.41224 1.8501,-7.02435 l 0.10184,-0.89796 9.84333,-0.0353 9.84335,-0.0355 0.83202,0.33808 c 2.64427,1.07446 4.69517,3.3073 5.63397,6.13369 0.29949,0.90168 0.35273,1.31583 0.35812,2.78598 0.007,1.82691 -0.13506,2.52304 -0.83647,4.10917 -1.68901,3.81917 -5.84621,6.09451 -10.12198,5.54004 z m -40.14298,-0.20137 c -2.52359,-0.37098 -4.83836,-1.10551 -6.99003,-2.21812 -5.20516,-2.69156 -8.88717,-7.58657 -10.21824,-13.58452 -0.46616,-2.10059 -0.47034,-5.75858 -0.009,-7.9435 0.83571,-3.95858 2.61481,-7.23988 5.46896,-10.0867 2.92203,-2.91455 6.05305,-4.6117 10.0934,-5.47107 2.16518,-0.46052 5.83151,-0.46009 7.93034,0.001 2.90244,0.63755 5.72448,1.89993 7.90398,3.53564 1.43142,1.07432 3.5343,3.24757 4.50033,4.65098 1.42142,2.06497 2.48942,4.55469 3.10316,7.23415 0.27501,1.20059 0.31481,1.73756 0.30714,4.14235 -0.008,2.47794 -0.0462,2.92254 -0.37126,4.30991 -0.92632,3.95384 -2.76577,7.16069 -5.75077,10.02577 -2.72342,2.61401 -5.725,4.20357 -9.61314,5.09091 -0.92194,0.21038 -1.85038,0.29542 -3.59184,0.32896 -1.29168,0.0248 -2.53501,0.0179 -2.76295,-0.0148 z m 5.61141,-6.45948 c 4.93535,-1.25703 8.70272,-5.00684 10.02141,-9.97469 0.31354,-1.18121 0.36408,-1.64968 0.36408,-3.37476 0,-1.72509 -0.0506,-2.19353 -0.36408,-3.37475 -1.31908,-4.96931 -5.02685,-8.66485 -10.02141,-9.98837 -1.83239,-0.48555 -4.60944,-0.51367 -6.41363,-0.065 -5.21014,1.29584 -9.05534,5.14143 -10.34535,10.34642 -0.42488,1.71431 -0.42488,4.449 0,6.16332 0.42067,1.69733 1.04562,3.12608 1.97537,4.51607 2.20238,3.29259 5.60151,5.44357 9.59835,6.07383 1.31587,0.20752 3.68324,0.0605 5.18526,-0.32211 z m -4.92066,-1.88928 c -4.67103,-0.72425 -8.388,-4.06174 -9.61751,-8.6356 -0.41462,-1.54239 -0.41462,-4.10673 0,-5.64914 1.106,-4.11436 4.28855,-7.30054 8.37418,-8.3837 1.54597,-0.40988 4.11237,-0.41067 5.66405,-0.001 1.43501,0.37815 3.36566,1.35231 4.46379,2.25231 1.82963,1.49953 3.30358,3.80651 3.91376,6.12571 0.41089,1.56173 0.41243,4.12723 0.003,5.66405 -1.31835,4.95327 -5.61354,8.43973 -10.71034,8.69375 -0.69434,0.0346 -1.63543,0.005 -2.09132,-0.0656 z m -41.27575,-12.90869 c -2.63372,-1.09397 -4.66662,-3.31827 -5.5994,-6.12659 -0.2995,-0.90169 -0.35274,-1.31585 -0.35813,-2.78598 -0.005,-1.29898 0.0562,-1.92727 0.24599,-2.53572 1.10231,-3.53353 3.41426,-5.87581 6.78483,-6.87387 1.37944,-0.40847 3.96989,-0.39714 5.25109,0.023 0.63179,0.20715 16.58184,9.46847 16.54893,9.60904 -0.0159,0.0677 -0.30825,0.80678 -0.64981,1.64258 -0.71415,1.74752 -1.23849,3.66365 -1.45896,5.33159 -0.0844,0.63874 -0.18889,1.36339 -0.23214,1.61032 l -0.0786,0.44898 -9.82765,-0.007 -9.82764,-0.007 z m 65.20046,0.23971 c -0.0331,-0.0569 -0.10446,-0.53877 -0.15839,-1.07065 -0.23565,-2.32117 -0.89367,-4.78821 -1.81827,-6.81713 -0.37993,-0.83369 -0.43882,-1.07141 -0.29725,-1.1998 0.24925,-0.22609 15.8127,-9.17859 16.32921,-9.39299 1.12226,-0.46587 3.95696,-0.50855 5.39986,-0.0812 3.37057,0.99807 5.68252,3.34034 6.78483,6.87388 0.18982,0.60845 0.25075,1.23674 0.24599,2.53571 -0.005,1.47014 -0.0586,1.8843 -0.35813,2.78599 -0.93846,2.8254 -2.98979,5.05925 -5.6317,6.13276 l -0.82977,0.33714 h -9.80305 c -5.39171,0 -9.83019,-0.0466 -9.86332,-0.10354 z M 611.8569,178.47175 c -3.19121,-1.85458 -6.82795,-3.95917 -8.08163,-4.67681 -1.25369,-0.71766 -2.50605,-1.54106 -2.78303,-1.82978 -0.84721,-0.88311 -1.7173,-2.32547 -2.12734,-3.52652 -0.54636,-1.60037 -0.63546,-3.95843 -0.20931,-5.5393 0.90435,-3.35482 3.19695,-5.75394 6.58215,-6.88799 0.82649,-0.27688 1.21555,-0.31847 2.88917,-0.30892 1.73384,0.0105 2.04083,0.0493 2.96524,0.38173 1.16142,0.41754 2.62451,1.25388 3.26446,1.86603 0.34426,0.3293 9.85552,16.55963 10.06971,17.18327 0.0337,0.0982 -0.37117,0.47771 -0.92367,0.86564 -1.43382,1.00679 -3.63727,3.18225 -4.66928,4.60998 -0.49388,0.68327 -0.96013,1.24058 -1.03611,1.23848 -0.076,-10e-4 -2.74914,-1.52121 -5.94036,-3.37581 z m 43.15588,2.89038 c -1.07037,-1.73191 -4.3312,-4.95176 -6.00218,-5.92676 -0.23338,-0.13621 0.17083,-0.88902 4.59892,-8.56517 2.67014,-4.62871 5.06076,-8.62294 5.3125,-8.87603 0.63461,-0.63801 2.06808,-1.46906 3.29468,-1.91001 0.92441,-0.33234 1.23139,-0.37185 2.96522,-0.38173 1.67363,-0.0105 2.06269,0.0321 2.88919,0.30892 3.38521,1.13405 5.67779,3.53317 6.58216,6.88799 0.43903,1.62865 0.3425,3.95358 -0.23176,5.58167 -0.45263,1.28332 -1.40028,2.81554 -2.22734,3.60132 -0.45443,0.43175 -16.47321,9.78805 -16.75798,9.78805 -0.06,0 -0.25064,-0.22871 -0.42341,-0.50825 z m -28.63008,-7.33688 c -0.0322,-0.0541 -2.23239,-3.86491 -4.88928,-8.46849 -5.34835,-9.26707 -5.27744,-9.11104 -5.10293,-11.22855 0.35395,-4.29482 2.98075,-7.53186 7.1399,-8.79853 1.42523,-0.43408 3.49796,-0.44028 5.01465,-0.0148 3.18457,0.89288 5.52144,3.01355 6.6112,5.99956 l 0.39489,1.08203 -0.0355,9.56 -0.0354,9.56 -0.89796,0.10066 c -2.56539,0.28754 -4.8722,0.87472 -6.75987,1.72067 -1.17224,0.52534 -1.37609,0.59439 -1.43964,0.48771 z m 19.90941,-0.10762 c -1.55013,-0.83974 -4.34446,-1.667 -6.66751,-1.97388 l -1.79592,-0.23726 -0.0355,-9.55513 -0.0354,-9.55514 0.39488,-1.08202 c 1.08976,-2.986 3.42664,-5.10667 6.6112,-5.99956 1.5167,-0.42523 3.58943,-0.41903 5.01466,0.0148 2.55927,0.77943 4.39874,2.17302 5.78203,4.38047 0.7691,1.22734 1.40165,3.45597 1.40165,4.93837 0,1.78315 -0.0215,1.828 -5.19144,10.78215 -2.67529,4.63356 -4.91734,8.43977 -4.98236,8.4582 -0.065,0.0184 -0.28832,-0.0586 -0.49623,-0.17125 z"
           id="path1-0"
           sodipodi:nodetypes="csssssssscccssscscsssscssssccssssscsscsssssssssscssssssssssssccccsssscssscssscccsssssscsscsscssssssscccssscssssssscssscsscsccsssssscssscccssssssssssscssssssssccsssscsssssssssssssssscsscccssssscccssssssssssscc" /><g
           id="g3"
           transform="translate(0,-1.7116244)"><text
             xml:space="preserve"
             style="font-size:25.4px;text-align:start;writing-mode:lr-tb;direction:ltr;text-anchor:start;fill:#000000;stroke-width:0.264583"
             x="379.59924"
             y="187.9359"
             id="text1-8"><tspan
               sodipodi:role="line"
               id="tspan1-7"
               style="font-style:normal;font-variant:normal;font-weight:800;font-stretch:normal;font-size:25.4px;font-family:Arad-VF;-inkscape-font-specification:'Arad-VF Ultra-Bold';fill:#ffffff;fill-opacity:1;stroke-width:0.264583"
               x="379.59924"
               y="187.9359">جامعه گنوم فارسی</tspan></text><text
             xml:space="preserve"
             style="font-style:normal;font-variant:normal;font-weight:normal;font-stretch:normal;font-size:19.7557px;font-family:Arad;-inkscape-font-specification:Arad;text-align:start;writing-mode:lr-tb;direction:ltr;text-anchor:start;fill:#f2f2f2;fill-opacity:1;stroke-width:0.205788"
             x="328.38034"
             y="220.73264"
             id="text2-3"><tspan
               sodipodi:role="line"
               id="tspan2-7"
               style="font-style:normal;font-variant:normal;font-weight:800;font-stretch:normal;font-family:Arad-VF;-inkscape-font-specification:'Arad-VF Ultra-Bold';stroke-width:0.205788"
               x="328.38034"
               y="220.73264">Persian GNOME Community</tspan><tspan
               sodipodi:role="line"
               style="font-style:normal;font-variant:normal;font-weight:800;font-stretch:normal;font-family:Arad-VF;-inkscape-font-specification:'Arad-VF Ultra-Bold';stroke-width:0.205788"
               x="328.38034"
               y="247.26649"
               id="tspan3-5" /></text></g></g></g></g></svg>
