<?xml version="1.0" encoding="UTF-8" standalone="no"?>
<!-- Created with Inkscape (http://www.inkscape.org/) -->

<svg
   width="1280mm"
   height="640mm"
   viewBox="0 0 1280 640"
   version="1.1"
   id="svg1"
   xml:space="preserve"
   inkscape:version="1.4.2 (2aeb623e1d, 2025-05-12)"
   sodipodi:docname="gnoem-fa-og-new.svg"
   inkscape:export-filename="../6912abee/gnoem-fa-og-new.png"
   inkscape:export-xdpi="96"
   inkscape:export-ydpi="96"
   xmlns:inkscape="http://www.inkscape.org/namespaces/inkscape"
   xmlns:sodipodi="http://sodipodi.sourceforge.net/DTD/sodipodi-0.dtd"
   xmlns:xlink="http://www.w3.org/1999/xlink"
   xmlns="http://www.w3.org/2000/svg"
   xmlns:svg="http://www.w3.org/2000/svg"><sodipodi:namedview
     id="namedview1"
     pagecolor="#ffffff"
     bordercolor="#000000"
     borderopacity="0.25"
     inkscape:showpageshadow="2"
     inkscape:pageopacity="0.0"
     inkscape:pagecheckerboard="0"
     inkscape:deskcolor="#d1d1d1"
     inkscape:document-units="mm"
     inkscape:zoom="0.25000001"
     inkscape:cx="2011.9999"
     inkscape:cy="1078"
     inkscape:window-width="2474"
     inkscape:window-height="1011"
     inkscape:window-x="0"
     inkscape:window-y="0"
     inkscape:window-maximized="1"
     inkscape:current-layer="layer1" /><defs
     id="defs1"><inkscape:path-effect
       effect="fillet_chamfer"
       id="path-effect7"
       is_visible="true"
       lpeversion="1"
       nodesatellites_param="F,0,0,1,0,0,0,1 @ F,0,0,1,0,62.522634,0,1 @ F,0,0,1,0,0,0,1"
       radius="0"
       unit="px"
       method="auto"
       mode="F"
       chamfer_steps="1"
       flexible="false"
       use_knot_distance="true"
       apply_no_radius="true"
       apply_with_radius="true"
       only_selected="false"
       hide_knots="false" /><linearGradient
       inkscape:collect="always"
       xlink:href="#linearGradient1"
       id="linearGradient3"
       gradientUnits="userSpaceOnUse"
       gradientTransform="matrix(2.5023211,0,0,4.8906208,-7.0652932,-1289.88)"
       x1="38.74733"
       y1="225.83601"
       x2="225.83601"
       y2="38.74733" /><linearGradient
       id="linearGradient1"
       inkscape:collect="always"><stop
         style="stop-color:#006595;stop-opacity:1;"
         offset="0"
         id="stop2" /><stop
         style="stop-color:#00a795;stop-opacity:1;"
         offset="1"
         id="stop1" /></linearGradient></defs><rect
     style="fill:url(#linearGradient3);fill-opacity:1;stroke-width:0;paint-order:markers fill stroke"
     id="rect1-7"
     width="662.07257"
     height="1293.9769"
     x="-7.0653944"
     y="-1289.8795"
     transform="rotate(90)" /><g
     inkscape:label="Layer 1"
     inkscape:groupmode="layer"
     id="layer1"><text
       xml:space="preserve"
       style="font-weight:800;font-size:94.2731px;line-height:1.3;font-family:Arad;-inkscape-font-specification:'Arad Ultra-Bold';text-align:end;writing-mode:lr-tb;direction:ltr;text-anchor:end;opacity:1;fill:#ffffff;stroke:none;stroke-width:1.12931;paint-order:markers fill stroke;fill-opacity:0.90980393"
       x="1239.8577"
       y="163.3405"
       id="text1"><tspan
         sodipodi:role="line"
         id="tspan1"
         x="1239.8577"
         y="163.3405"
         style="font-style:normal;font-variant:normal;font-weight:800;font-stretch:normal;font-family:Arad-VF;-inkscape-font-specification:'Arad-VF Ultra-Bold';fill:#ffffff;stroke:none;stroke-width:1.12931;fill-opacity:0.90980393">گنوم فارسی</tspan></text><text
       xml:space="preserve"
       style="font-weight:800;font-size:38.6286px;line-height:1.3;font-family:Arad;-inkscape-font-specification:'Arad Ultra-Bold';text-align:end;writing-mode:lr-tb;direction:ltr;text-anchor:end;fill:#ffffff;stroke:none;stroke-width:1.71747;paint-order:markers fill stroke;fill-opacity:0.90980393"
       x="1237.9299"
       y="252.36539"
       id="text1-2"><tspan
         sodipodi:role="line"
         id="tspan1-0"
         x="1237.9299"
         y="252.36539"
         style="font-style:normal;font-variant:normal;font-weight:normal;font-stretch:normal;font-size:38.6286px;font-family:Arad-VF;-inkscape-font-specification:Arad-VF;fill:#ffffff;stroke:none;stroke-width:1.71747;fill-opacity:0.90980393">جامعه کاربران فارسی‌زبان گنوم</tspan></text><rect
       style="opacity:1;fill:#ffffff;stroke:none;stroke-width:0.608542;paint-order:markers fill stroke;fill-opacity:0.66666669"
       id="rect1"
       width="643.96265"
       height="643.96265"
       x="25.582664"
       y="-152.99222"
       rx="99.555618"
       ry="95.734406"
       transform="rotate(30)" /><g
       style="fill:#006e95;fill-opacity:1"
       id="g1"
       transform="matrix(3.5676631,0,0,3.5676631,22.644059,97.342548)"><g
         style="fill:#006e95;fill-opacity:1;fill-rule:nonzero;stroke:none;stroke-width:1.79233;stroke-miterlimit:4"
         id="g2053"
         transform="matrix(0.82427802,0,0,0.82427802,24.348145,15.260441)"><path
           d="M 86.068,0 C 61.466,0 56.851,35.041 70.691,35.041 84.529,35.041 110.671,0 86.068,0 Z"
           style="fill:#006e95;fill-opacity:1;stroke-width:1.79233"
           id="path2043" /><path
           d="M 45.217,30.699 C 52.586,31.149 60.671,2.577 46.821,4.374 32.976,6.171 37.845,30.249 45.217,30.699 Z"
           style="fill:#006e95;fill-opacity:1;stroke-width:1.79233"
           id="path2045" /><path
           d="M 11.445,48.453 C 16.686,46.146 12.12,23.581 3.208,29.735 -5.7,35.89 6.204,50.759 11.445,48.453 Z"
           style="fill:#006e95;fill-opacity:1;stroke-width:1.79233"
           id="path2047" /><path
           d="M 26.212,36.642 C 32.451,35.37 32.793,9.778 21.667,14.369 10.539,18.961 19.978,37.916 26.212,36.642 Z"
           style="fill:#006e95;fill-opacity:1;stroke-width:1.79233"
           id="path2049" /><path
           d="m 58.791,93.913 c 1.107,8.454 -6.202,12.629 -13.36,7.179 C 22.644,83.743 83.16,75.088 79.171,51.386 75.86,31.712 15.495,37.769 8.621,68.553 3.968,89.374 27.774,118.26 52.614,118.26 c 12.22,0 26.315,-11.034 28.952,-25.012 C 83.58,82.589 57.867,86.86 58.791,93.913 Z"
           style="fill:#006e95;fill-opacity:1;stroke-width:1.79233"
           id="path2051" /></g></g><g
       id="g6"
       transform="translate(-12.170845,57.730312)"
       style="fill:#ffffff;fill-opacity:0.90980393"><rect
         style="opacity:1;fill:#ffffff;fill-opacity:0.90980393;stroke:none;stroke-width:0.571672;paint-order:markers fill stroke"
         id="rect2"
         width="193.37384"
         height="58.789032"
         x="1024.3333"
         y="342.004"
         rx="30.250164"
         ry="29.394516" /><path
         d="m 1176.7079,356.70559 c -2.6998,0 -4.8948,2.19498 -4.8948,4.89481 0,2.70735 2.195,4.89472 4.8948,4.89472 2.7075,0 4.8948,-2.18737 4.8948,-4.89472 0,-2.69983 -2.1873,-4.89481 -4.8948,-4.89481 z m 11.7475,5.87375 c -2.6998,0 -4.8948,2.19499 -4.8948,4.8948 0,2.70736 2.195,4.89473 4.8948,4.89473 2.7075,0 4.8948,-2.18737 4.8948,-4.89473 0,-2.69981 -2.1873,-4.8948 -4.8948,-4.8948 z m -15.6633,5.87374 c -3.2505,0 -5.8738,2.6233 -5.8738,5.87375 v 3.91579 c 0,1.08601 0.8719,1.95796 1.9579,1.95796 h 7.9847 c 0,-3.99999 3.0898,-7.31165 7.0056,-7.64812 -1.1548,-1.04784 -1.9273,-2.46272 -2.172,-3.99999 -0.3441,-0.0592 -0.7038,-0.0992 -1.0708,-0.0992 z m 11.7475,5.87375 c -3.2505,0 -5.8738,2.6233 -5.8738,5.87375 v 3.91578 c 0,1.08602 0.8719,1.95796 1.9579,1.95796 h 15.6634 c 1.086,0 1.9578,-0.87194 1.9578,-1.95796 v -3.91578 c 0,-3.25045 -2.6155,-5.87375 -5.8737,-5.87375 z m 0,0"
         fill="#222222"
         id="path1"
         style="fill:#007195;fill-opacity:1;stroke-width:1.95791" /><text
         xml:space="preserve"
         style="font-style:normal;font-variant:normal;font-weight:normal;font-stretch:normal;font-size:37.2708px;line-height:1.3;font-family:Arad;-inkscape-font-specification:Arad;text-align:end;writing-mode:lr-tb;direction:ltr;text-anchor:end;opacity:1;fill:#007195;fill-opacity:1;stroke:none;stroke-width:0.892947;paint-order:markers fill stroke"
         x="1149.7482"
         y="379.29456"
         id="text3"><tspan
           sodipodi:role="line"
           id="tspan3"
           x="1149.7482"
           y="379.29456"
           style="font-style:normal;font-variant:normal;font-weight:normal;font-stretch:normal;font-size:37.2708px;font-family:Arad-VF;-inkscape-font-specification:Arad-VF;stroke-width:0.892947;fill:#007195;fill-opacity:1">جامعه</tspan></text></g><g
       id="g3"
       transform="translate(27.516668,46.566659)"
       style="fill:#ffffff;fill-opacity:0.90980393"><rect
         style="fill:#ffffff;fill-opacity:0.909804;stroke:none;stroke-width:0.533241;paint-order:markers fill stroke"
         id="rect2-2-9"
         width="168.24899"
         height="58.789032"
         x="665.2345"
         y="461.16876"
         rx="26.319813"
         ry="29.394516" /><path
         d="m 781.84375,480.65851 v 16.87412 c 0,4.12335 3.37624,7.49966 7.49959,7.49966 h 16.87412 v -0.0638 c 3.22247,-0.4684 5.69798,-3.31041 5.6247,-6.63541 v -10.17281 c 0,-3.10533 -2.51937,-5.6247 -5.6247,-5.6247 h -3.74983 v -1.87495 c 0,-3.10527 -2.51937,-5.62471 -5.62471,-5.62471 h -9.37446 c -3.10534,0 -5.62471,2.51944 -5.62471,5.62471 z m 5.62471,-1.87488 h 9.37446 c 1.03268,0 1.87495,0.84227 1.87495,1.87488 v 17.7091 c 0,1.04727 0.25652,2.02865 0.68808,2.91485 h -10.06261 c -2.09463,0 -3.74983,-1.6552 -3.74983,-3.74983 v -16.87412 c 0,-1.03261 0.84227,-1.87488 1.87495,-1.87488 z m 0,1.87488 v 3.74983 h 9.37446 v -3.74983 z m 0,5.62471 v 1.87495 h 9.37446 v -1.87495 z m 14.99917,0 h 3.74983 c 1.03268,0 1.87488,0.84227 1.87488,1.87495 v 10.25337 c 0.0354,1.56726 -1.16449,2.81962 -2.73175,2.86362 -1.61857,-0.0142 -2.89296,-1.28169 -2.89296,-2.90755 z m -14.99917,3.74983 v 1.87488 h 9.37446 v -1.87488 z m 0,3.74983 v 1.87487 h 9.37446 v -1.87487 z m 0,0"
         fill="#222222"
         id="path1-3"
         style="fill:#007195;fill-opacity:1;stroke-width:1.8749" /><text
         xml:space="preserve"
         style="font-style:normal;font-variant:normal;font-weight:normal;font-stretch:normal;font-size:37.2708px;line-height:1.3;font-family:Arad;-inkscape-font-specification:Arad;text-align:end;writing-mode:lr-tb;direction:ltr;text-anchor:end;fill:#007195;fill-opacity:1;stroke:none;stroke-width:0.892947;paint-order:markers fill stroke"
         x="769.14612"
         y="497.62189"
         id="text3-0-3"><tspan
           sodipodi:role="line"
           id="tspan3-9-6"
           x="769.14612"
           y="497.62189"
           style="font-style:normal;font-variant:normal;font-weight:normal;font-stretch:normal;font-size:37.2708px;font-family:Arad-VF;-inkscape-font-specification:Arad-VF;fill:#007195;fill-opacity:1;stroke-width:0.892947">اخبار</tspan></text></g><g
       id="g4"
       transform="translate(27.516668,42.33335)"
       style="fill:#ffffff;fill-opacity:0.90980393"><rect
         style="fill:#ffffff;fill-opacity:0.909804;stroke:none;stroke-width:0.590146;paint-order:markers fill stroke"
         id="rect2-2-2"
         width="206.07384"
         height="58.789032"
         x="887.67706"
         y="464.87289"
         rx="32.23687"
         ry="29.394516" /><path
         d="m 1049.3769,479.26789 c -3.0915,0 -5.6255,2.53414 -5.6255,5.62494 0,2.43158 1.5744,4.51887 3.7498,5.29526 v 17.20438 h 3.7506 v -17.20438 c 2.1747,-0.77639 3.7498,-2.86368 3.7498,-5.29526 0,-3.0908 -2.5347,-5.62494 -5.6247,-5.62494 z m 13.1243,0 c -0.4936,0 -0.9741,0.19743 -1.3254,0.54948 l -3.7506,3.74996 c -0.7316,0.7324 -0.7316,1.9189 0,2.65137 l 3.7506,3.74989 c 0.7324,0.73239 1.9192,0.73239 2.6508,0 0.7332,-0.7324 0.7332,-1.9189 0,-2.65137 l -0.5444,-0.54948 h 2.0361 c 0.5371,0 0.9378,0.3956 0.9378,0.93745 v 6.56241 c 0,1.03268 0.8427,1.87505 1.8749,1.87505 1.0329,0 1.8749,-0.84237 1.8749,-1.87505 v -6.56241 c 0,-2.56339 -2.1238,-4.68741 -4.6876,-4.68741 h -2.0361 l 0.5444,-0.54948 c 0.7332,-0.7324 0.7332,-1.91897 0,-2.65137 -0.3556,-0.35132 -0.8274,-0.54948 -1.3254,-0.54948 z m -13.1243,2.81243 c 1.5526,0 2.8127,1.25974 2.8127,2.81251 0,1.55263 -1.2601,2.81236 -2.8127,2.81236 -1.5527,0 -2.8128,-1.25973 -2.8128,-2.81236 0,-1.55277 1.2601,-2.81251 2.8128,-2.81251 z m 16.8741,15.93724 v 3.74996 h -3.7498 v 3.74989 h 3.7498 v 3.74997 h 3.7506 v -3.74997 h 3.7498 v -3.74989 h -3.7498 v -3.74996 z m 0,0"
         fill="#222222"
         id="path1-78"
         style="fill:#007195;fill-opacity:1;stroke-width:1.87497" /><text
         xml:space="preserve"
         style="font-style:normal;font-variant:normal;font-weight:normal;font-stretch:normal;font-size:37.2708px;line-height:1.3;font-family:Arad;-inkscape-font-specification:Arad;text-align:end;writing-mode:lr-tb;direction:ltr;text-anchor:end;fill:#007195;fill-opacity:1;stroke:none;stroke-width:0.892947;paint-order:markers fill stroke"
         x="1032.1421"
         y="501.87234"
         id="text3-0-1"><tspan
           sodipodi:role="line"
           id="tspan3-9-8"
           x="1032.1421"
           y="501.87234"
           style="font-style:normal;font-variant:normal;font-weight:normal;font-stretch:normal;font-size:37.2708px;font-family:Arad-VF;-inkscape-font-specification:Arad-VF;fill:#007195;fill-opacity:1;stroke-width:0.892947">مشارکت</tspan></text></g><g
       id="g7"
       transform="translate(-51.858342,59.744717)"
       style="fill:#ffffff;fill-opacity:0.90980393"><rect
         style="fill:#ffffff;fill-opacity:0.90980393;stroke:none;stroke-width:0.571672;paint-order:markers fill stroke"
         id="rect2-2"
         width="193.37384"
         height="58.789032"
         x="808.302"
         y="339.98959"
         rx="30.250164"
         ry="29.394516" /><g
         id="g5"
         style="fill:#ffffff;fill-opacity:0.90980393"><text
           xml:space="preserve"
           style="font-style:normal;font-variant:normal;font-weight:normal;font-stretch:normal;font-size:37.2708px;line-height:1.3;font-family:Arad;-inkscape-font-specification:Arad;text-align:end;writing-mode:lr-tb;direction:ltr;text-anchor:end;fill:#007195;fill-opacity:1;stroke:none;stroke-width:0.892947;paint-order:markers fill stroke"
           x="933.71692"
           y="374.67676"
           id="text3-0"><tspan
             sodipodi:role="line"
             id="tspan3-9"
             x="933.71692"
             y="374.67676"
             style="font-style:normal;font-variant:normal;font-weight:normal;font-stretch:normal;font-size:37.2708px;font-family:Arad-VF;-inkscape-font-specification:Arad-VF;fill:#007195;fill-opacity:1;stroke-width:0.892947">ترجمه</tspan></text><path
           d="m 959.47129,358.1341 c -3.08353,0 -5.625,2.54147 -5.625,5.625 v 11.25001 c 0,3.08346 2.54147,5.62501 5.625,5.62501 h 18.75 c 3.08353,0 5.625,-2.54155 5.625,-5.62501 V 363.7591 c 0,-3.08353 -2.54147,-5.625 -5.625,-5.625 z m 18.75,3.74996 c 1.06937,0 1.87497,0.80567 1.87497,1.87504 v 11.25001 c 0,1.0693 -0.8056,1.87498 -1.87497,1.87498 h -9.37504 v -14.97807 z m -3.75003,1.88234 c -0.52016,0 -0.93749,0.41741 -0.93749,0.93749 v 0.95216 h -1.87498 c -0.52016,0 -0.93749,0.4174 -0.93749,0.93749 0,0.52016 0.41741,0.93749 0.93749,0.93749 h 4.54104 c -0.0808,1.28176 -0.30048,2.62942 -0.9815,3.63281 -0.27071,-0.35149 -0.56409,-0.77634 -0.88618,-1.30365 -0.26362,-0.43937 -0.84232,-0.57827 -1.28176,-0.31465 -0.43937,0.26362 -0.58606,0.84232 -0.32244,1.28906 0.41032,0.66685 0.79838,1.21585 1.18651,1.67726 -0.65905,0.45425 -1.3989,0.68811 -2.1972,0.64417 -0.24874,-0.0142 -0.49111,0.073 -0.68103,0.24166 -0.18283,0.16866 -0.29267,0.40252 -0.30756,0.64488 -0.0213,0.52016 0.37347,0.95946 0.88626,0.9888 1.38423,0.073 2.62934,-0.41032 3.65478,-1.20856 0.58606,0.46134 1.14257,0.78371 1.66259,1.08404 0.21969,0.12473 0.47622,0.16087 0.71773,0.095 0.24166,-0.0638 0.44717,-0.22677 0.5641,-0.43937 0.12472,-0.21259 0.16086,-0.46842 0.095,-0.71043 -0.0638,-0.24165 -0.21969,-0.44717 -0.43937,-0.57118 -0.47622,-0.27851 -0.89355,-0.49819 -1.30373,-0.78364 0.0425,-0.0567 0.0879,-0.10984 0.12473,-0.16866 1.16454,-1.63325 1.7798,-3.73536 1.61865,-5.80805 -0.0354,-0.48331 -0.43937,-0.86429 -0.93019,-0.86429 H 975.409 v -0.95216 c 0,-0.52015 -0.4174,-0.93748 -0.93749,-0.93748 z m -12.26807,0.0213 c 0.38126,0 0.73247,0.22678 0.87158,0.58607 l 3.75003,9.37503 c 0.095,0.23457 0.0879,0.4911 -0.007,0.71773 -0.10276,0.22677 -0.28559,0.41032 -0.52016,0.50528 -0.22677,0.0879 -0.48331,0.0879 -0.7178,-0.0142 -0.22677,-0.095 -0.40252,-0.2785 -0.49819,-0.51236 l -0.51307,-1.28906 h -4.73146 l -0.51236,1.28176 c -0.095,0.23457 -0.27071,0.4174 -0.49819,0.52016 -0.23456,0.095 -0.4911,0.10276 -0.7251,0.007 -0.22677,-0.095 -0.41032,-0.27071 -0.51307,-0.49819 -0.095,-0.23457 -0.10276,-0.4904 -0.007,-0.71774 l 3.74996,-9.37503 c 0.1389,-0.35858 0.4911,-0.59315 0.87158,-0.59315 z m 0,3.46437 -1.60399,4.01365 h 3.20804 z m 0,0"
           fill="#222222"
           id="path1-36"
           style="fill:#007195;stroke-width:1.875;fill-opacity:1" /></g></g><path
       style="opacity:1;fill:#000000;fill-opacity:0;stroke:#ffffff;stroke-width:3.909;stroke-dasharray:none;stroke-opacity:0.90980393;paint-order:markers fill stroke"
       d="M 511.8746,658.55212 673.66141,378.32914 a 108.29238,108.29238 150 0 1 93.78395,-54.14619 h 605.03704"
       id="path7"
       inkscape:path-effect="#path-effect7"
       inkscape:original-d="M 511.8746,658.55212 704.92273,324.18295 h 667.55967" /><path
       style="opacity:0.907924;fill:#ffffff;fill-opacity:1;stroke-width:0.632853"
       d="m 1814.1726,382.37372 c -0.9278,-0.12108 -2.8535,-0.72627 -3.7675,-1.18433 -2.6763,-1.34136 -4.8875,-3.75347 -5.7871,-6.31319 -0.4681,-1.33173 -0.8268,-3.14517 -0.8268,-4.17965 0,-2.16268 0.024,-2.21321 6.3023,-13.0744 3.2481,-5.61937 5.9656,-10.20134 6.0388,-10.18213 0.073,0.02 0.9621,0.3726 1.9752,0.78535 2.1158,0.86208 4.517,1.51625 6.4959,1.76972 0.7556,0.0967 1.6187,0.21633 1.918,0.26569 l 0.5442,0.0897 v 11.54111 11.54108 l -0.4775,1.30832 c -1.3041,3.57353 -4.168,6.19692 -7.8913,7.22871 -1.2236,0.33908 -3.4776,0.54034 -4.5242,0.40398 z m 25.531,-0.0446 c -4.506,-0.7173 -7.9922,-3.50731 -9.4814,-7.58801 l -0.4775,-1.30837 v -11.5487 c 0,-6.35179 0.019,-11.54903 0.042,-11.54944 0.023,-4.3e-4 1.023,-0.14525 2.2221,-0.32157 2.6603,-0.3914 4.7927,-0.97621 6.829,-1.87287 0.8468,-0.37285 1.6383,-0.69079 1.7588,-0.70649 0.1265,-0.0161 2.7147,4.29034 6.1226,10.18848 6.2752,10.86054 6.3001,10.91217 6.3001,13.0744 0,1.79676 -0.7667,4.49795 -1.6989,5.98553 -1.6634,2.65456 -3.9422,4.39032 -6.9244,5.27438 -1.3461,0.39904 -3.4678,0.56754 -4.6923,0.37261 z m -47.9683,-12.67485 c -0.8158,-0.1556 -2.577,-0.76032 -3.3343,-1.14458 -6.4578,-3.27671 -8.4133,-11.70559 -4.0677,-17.53302 0.9982,-1.33856 1.3718,-1.62095 4.5556,-3.44409 1.6116,-0.92285 6.0106,-3.45767 9.7755,-5.63293 3.765,-2.17522 6.892,-3.95259 6.9489,-3.94966 0.057,0.005 0.4409,0.51151 0.8533,1.13024 0.9676,1.45174 4.6182,5.10189 6.0689,6.06816 0.6433,0.42843 1.0936,0.84065 1.0508,0.96176 -0.277,0.78293 -11.793,20.4308 -12.2072,20.82703 -0.7865,0.75228 -2.5616,1.76157 -3.9567,2.24962 -1.0201,0.35686 -1.6192,0.44736 -3.2591,0.49233 -1.1052,0.0303 -2.1977,0.02 -2.428,-0.0248 z m 69.0699,-0.06 c -1.9046,-0.42336 -4.2522,-1.58411 -5.374,-2.65719 -0.4172,-0.39915 -11.9454,-20.07113 -12.2049,-20.82702 -0.041,-0.11963 0.4527,-0.57733 1.1316,-1.04919 1.5539,-1.0801 4.6378,-4.15992 5.8157,-5.80812 0.506,-0.70793 0.9665,-1.29188 1.0234,-1.29766 0.057,-0.006 3.1839,1.76924 6.9489,3.94447 3.7649,2.17526 8.164,4.70977 9.7756,5.63227 1.6116,0.92252 3.2135,1.94663 3.5596,2.27585 1.003,0.95374 2.1512,2.81052 2.6997,4.3655 0.696,1.97333 0.813,4.79126 0.2809,6.76525 -1.0863,4.02975 -3.8552,6.9513 -7.8834,8.31783 -1.2115,0.411 -4.5621,0.60718 -5.7731,0.33801 z m -80.8745,-22.04219 c -5.3158,-0.69057 -8.814,-3.61992 -10.4021,-8.71078 -0.23,-0.73747 -0.3039,-1.49899 -0.2982,-3.0734 0.01,-1.78189 0.071,-2.28386 0.4341,-3.37674 1.1375,-3.42456 3.6238,-6.13209 6.8259,-7.43323 l 1.0057,-0.40866 h 11.8731 11.8731 l 0.095,0.54419 c 0.052,0.2993 0.1765,1.15941 0.2758,1.91135 0.2684,2.03268 0.9218,4.4317 1.7712,6.50262 0.4155,1.01302 0.7711,1.90958 0.7903,1.99234 0.032,0.13554 -4.5102,2.80789 -15.9558,9.38847 -4.1181,2.36764 -4.3986,2.47744 -6.7814,2.65445 -0.5526,0.0411 -1.2307,0.0454 -1.507,0.01 z m 94.367,-0.0888 c -0.6833,-0.0887 -1.4803,-0.2605 -1.771,-0.38198 -0.6399,-0.26734 -19.5018,-11.11655 -19.8053,-11.39177 -0.1716,-0.1556 -0.1002,-0.44376 0.3603,-1.45425 1.1258,-2.47032 1.8837,-5.34787 2.2424,-8.51388 l 0.1235,-1.08837 11.9306,-0.0428 11.9306,-0.043 1.0085,0.40977 c 3.2049,1.3023 5.6908,4.00861 6.8286,7.43435 0.363,1.09287 0.4275,1.59485 0.4341,3.37675 0.01,2.2143 -0.1637,3.05804 -1.0139,4.98051 -2.0471,4.62903 -7.0859,7.38686 -12.2683,6.71482 z m -48.6554,-0.24407 c -3.0587,-0.44965 -5.8643,-1.33993 -8.4722,-2.68848 -6.3089,-3.2623 -10.7717,-9.1953 -12.385,-16.46513 -0.565,-2.54601 -0.5701,-6.97969 -0.011,-9.62792 1.0129,-4.798 3.1692,-8.77511 6.6286,-12.22559 3.5417,-3.53258 7.3366,-5.58962 12.2337,-6.63122 2.6243,-0.55818 7.0681,-0.55765 9.612,8.5e-4 3.5179,0.77275 6.9384,2.30282 9.58,4.28538 1.735,1.30213 4.2838,3.93622 5.4546,5.63722 1.7229,2.50285 3.0173,5.52052 3.7612,8.76816 0.3334,1.45518 0.3816,2.10601 0.3723,5.02074 -0.01,3.00339 -0.056,3.54227 -0.45,5.22383 -1.1227,4.79226 -3.3522,8.67912 -6.9702,12.15175 -3.3009,3.16831 -6.939,5.09494 -11.6516,6.17044 -1.1175,0.25499 -2.2428,0.35806 -4.3535,0.39871 -1.5656,0.03 -3.0726,0.0217 -3.3488,-0.018 z m 6.8014,-7.82922 c 5.9819,-1.52358 10.5481,-6.06855 12.1464,-12.08983 0.38,-1.43168 0.4413,-1.9995 0.4413,-4.09038 0,-2.0909 -0.061,-2.65867 -0.4413,-4.09037 -1.5988,-6.02306 -6.0928,-10.50224 -12.1464,-12.10641 -2.221,-0.58852 -5.5869,-0.6226 -7.7737,-0.0788 -6.3149,1.57063 -10.9755,6.23168 -12.5391,12.54039 -0.5149,2.07783 -0.5149,5.39242 0,7.47026 0.5099,2.05725 1.2674,3.78897 2.3943,5.47371 2.6694,3.99078 6.7893,6.59789 11.6337,7.36179 1.5949,0.25153 4.4642,0.0733 6.2848,-0.39041 z m -5.9641,-2.2899 c -5.6615,-0.87783 -10.1667,-4.92303 -11.6569,-10.46679 -0.5026,-1.86946 -0.5026,-4.97757 0,-6.84704 1.3405,-4.98681 5.1979,-8.84863 10.1499,-10.16147 1.8738,-0.4968 4.9844,-0.49776 6.8651,-8.6e-4 1.7393,0.45834 4.0794,1.63907 5.4103,2.72992 2.2176,1.81751 4.0042,4.61368 4.7437,7.42467 0.498,1.8929 0.4999,5.00241 0,6.86511 -1.5979,6.00362 -6.8039,10.22939 -12.9815,10.53728 -0.8415,0.0419 -1.9822,0.006 -2.5347,-0.0795 z m -50.0283,-15.64603 c -3.1922,-1.32595 -5.6562,-4.02191 -6.7868,-7.42574 -0.363,-1.0929 -0.4275,-1.59488 -0.4341,-3.37675 -0.01,-1.57443 0.068,-2.33595 0.2982,-3.07342 1.3361,-4.28283 4.1383,-7.12178 8.2236,-8.33148 1.6719,-0.49509 4.8117,-0.48136 6.3646,0.0279 0.7657,0.25108 20.098,11.47627 20.0581,11.64665 -0.019,0.0821 -0.3736,0.97785 -0.7876,1.99089 -0.8656,2.11808 -1.5011,4.44052 -1.7683,6.46216 -0.1023,0.77418 -0.229,1.65249 -0.2814,1.95178 l -0.095,0.54419 -11.9116,-0.009 -11.9116,-0.009 z m 79.0262,0.29054 c -0.04,-0.069 -0.1266,-0.65302 -0.1919,-1.29768 -0.2856,-2.81338 -1.0832,-5.80356 -2.2039,-8.26271 -0.4605,-1.01048 -0.5318,-1.29861 -0.3603,-1.45422 0.3022,-0.27403 19.1658,-11.12492 19.7919,-11.38479 1.3602,-0.56465 4.796,-0.61638 6.5449,-0.0984 4.0853,1.20971 6.8875,4.04866 8.2235,8.33149 0.2301,0.73747 0.304,1.49899 0.2982,3.07341 -0.01,1.78189 -0.071,2.28387 -0.4341,3.37676 -1.1374,3.42453 -3.6237,6.13207 -6.8259,7.43322 l -1.0057,0.40863 h -11.8818 c -6.535,0 -11.9147,-0.0565 -11.9548,-0.12549 z m -57.1282,-17.3891 c -3.8679,-2.24785 -8.2758,-4.79872 -9.7953,-5.66854 -1.5196,-0.86983 -3.0375,-1.86784 -3.3732,-2.21778 -1.0269,-1.07037 -2.0815,-2.81859 -2.5785,-4.27432 -0.6622,-1.93973 -0.7702,-4.79782 -0.2537,-6.71392 1.0962,-4.06621 3.8749,-6.97407 7.9779,-8.34859 1.0018,-0.33559 1.4734,-0.386 3.5019,-0.37442 2.1015,0.0127 2.4736,0.0597 3.594,0.46267 1.4077,0.50608 3.181,1.51976 3.9567,2.26172 0.4172,0.39913 11.9454,20.07112 12.205,20.827 0.041,0.11902 -0.4499,0.579 -1.1196,1.0492 -1.7378,1.22028 -4.4085,3.85705 -5.6594,5.58753 -0.5986,0.82816 -1.1637,1.50364 -1.2558,1.5011 -0.092,-8.5e-4 -3.3321,-1.84378 -7.2,-4.09165 z m 52.3071,3.50328 c -1.2973,-2.09916 -5.2496,-6.00178 -7.2749,-7.18353 -0.2829,-0.1651 0.207,-1.07753 5.5741,-10.38142 3.2363,-5.61024 6.1339,-10.45144 6.439,-10.7582 0.7692,-0.7733 2.5066,-1.78057 3.9933,-2.31503 1.1205,-0.40281 1.4925,-0.4507 3.594,-0.46267 2.0286,-0.0127 2.5001,0.0389 3.5019,0.37442 4.103,1.37452 6.8817,4.28238 7.9779,8.34859 0.5321,1.97401 0.4151,4.79194 -0.2809,6.76527 -0.5486,1.55545 -1.6972,3.41258 -2.6997,4.36498 -0.5508,0.52331 -19.9663,11.86362 -20.3115,11.86362 -0.073,0 -0.3038,-0.27721 -0.5132,-0.61603 z m -34.7011,-8.89267 c -0.039,-0.0655 -2.7058,-4.68446 -5.926,-10.26423 -6.4825,-11.23217 -6.3966,-11.04305 -6.1851,-13.60959 0.4291,-5.20553 3.6129,-9.12899 8.654,-10.66425 1.7274,-0.52613 4.2397,-0.53365 6.078,-0.018 3.8598,1.08221 6.6922,3.65257 8.0131,7.27177 l 0.4786,1.31148 -0.043,11.5872 -0.043,11.58721 -1.0884,0.122 c -3.1094,0.34852 -5.9053,1.0602 -8.1933,2.08555 -1.4208,0.63674 -1.6679,0.72043 -1.7449,0.59112 z m 24.1312,-0.13044 c -1.8788,-1.01781 -5.2657,-2.02049 -8.0813,-2.39244 l -2.1768,-0.28758 -0.043,-11.5813 -0.043,-11.58131 0.4786,-1.31146 c 1.3209,-3.61918 4.1533,-6.18955 8.0131,-7.27178 1.8384,-0.5154 4.3506,-0.50789 6.0781,0.018 3.1019,0.94471 5.3315,2.63381 7.0081,5.30935 0.9322,1.4876 1.6988,4.18881 1.6988,5.98556 0,2.16126 -0.026,2.21562 -6.2923,13.06851 -3.2425,5.61611 -5.96,10.22943 -6.0388,10.25177 -0.079,0.0223 -0.3495,-0.071 -0.6015,-0.20757 z"
       id="path1-0"
       sodipodi:nodetypes="csssssssscccssscscsssscssssccssssscsscsssssssssscssssssssssssccccsssscssscssscccsssssscsscsscssssssscccssscssssssscssscsscsccsssssscssscccssssssssssscssssssssccsssscsssssssssssssssscsscccssssscccssssssssssscc" /><text
       xml:space="preserve"
       style="font-size:25.4px;text-align:start;writing-mode:lr-tb;direction:ltr;text-anchor:start;fill:#000000;stroke-width:0.264583"
       x="1568.7576"
       y="295.9653"
       id="text1-8"><tspan
         sodipodi:role="line"
         id="tspan1-7"
         style="font-style:normal;font-variant:normal;font-weight:800;font-stretch:normal;font-size:25.4px;font-family:Arad-VF;-inkscape-font-specification:'Arad-VF Ultra-Bold';fill:#ffffff;fill-opacity:1;stroke-width:0.264583"
         x="1568.7576"
         y="295.9653">جامعه گنوم فارسی</tspan></text><text
       xml:space="preserve"
       style="font-style:normal;font-variant:normal;font-weight:normal;font-stretch:normal;font-size:23.0033px;font-family:Arad;-inkscape-font-specification:Arad;text-align:start;writing-mode:lr-tb;direction:ltr;text-anchor:start;fill:#f2f2f2;fill-opacity:1;stroke-width:0.239617"
       x="1570.693"
       y="336.16986"
       id="text2-3"><tspan
         sodipodi:role="line"
         style="font-style:normal;font-variant:normal;font-weight:800;font-stretch:normal;font-family:Arad-VF;-inkscape-font-specification:'Arad-VF Ultra-Bold';stroke-width:0.239617"
         x="1570.693"
         y="336.16986"
         id="tspan1-9">Persian GNOME </tspan><tspan
         sodipodi:role="line"
         style="font-style:normal;font-variant:normal;font-weight:800;font-stretch:normal;font-family:Arad-VF;-inkscape-font-specification:'Arad-VF Ultra-Bold';stroke-width:0.239617"
         x="1570.693"
         y="367.06558"
         id="tspan2">Community</tspan><tspan
         sodipodi:role="line"
         style="font-style:normal;font-variant:normal;font-weight:800;font-stretch:normal;font-family:Arad-VF;-inkscape-font-specification:'Arad-VF Ultra-Bold';stroke-width:0.239617"
         x="1570.693"
         y="397.96127"
         id="tspan3-5" /></text></g><style
     id="style1">
        path { fill: #000; }
        @media (prefers-color-scheme: dark) {
            path { fill: #FFF; }
        }
    </style></svg>
